<svg version="1.0" xmlns="http://www.w3.org/2000/svg" width="533.33" height="533.33" viewBox="0 0 400 400"><path d="M223.2 51.7c-1.2.4-12.2 16.6-12.2 17.8 0 .3 3.2.5 7 .5h7l10-9.1c5.5-5 10-9.2 10-9.5 0-.6-20.2-.4-21.8.3zM83 78c-14.8 3.1-27.6 14.7-32.5 29.5-1.9 5.6-2.2 18.1-.6 23.4 2.4 7.8 9.2 13.1 17 13.1 5.4 0 9.9-2 14.9-6.4l3.9-3.6.7 3.9c.7 4.6 1.7 5.1 10.1 5.1h6.4l.5-3.3c.3-1.7 1.9-14.7 3.6-28.7 1.7-14 3.3-26.7 3.6-28.2.5-2.4.2-2.8-3.3-3.7C101.6 77.6 88.1 77 83 78zm6.5 19.7c-1 9.8-2.2 14.9-5.1 20.9-4.8 10.2-12.4 12.7-15.3 5.1-4.9-12.9 6.1-32.6 18.2-32.7h2.9l-.7 6.7zM154.7 78.4c-4.2 1.5-5.6 2.5-10.9 7.5l-3.8 3.5v-4c0-6-2.2-7.6-10.1-7.2l-6.3.3-5.2 42c-2.8 23.1-4.9 42.3-4.7 42.7.2.5 4.4.8 9.3.8h8.9l.5-3.3c.3-1.7 1.1-7 1.7-11.7.6-4.7 1.2-8.6 1.3-8.7.1-.2 2 .6 4.1 1.7 16.8 8.5 37.5-9.9 40-35.6 1.4-13.5-2.4-23.1-10.5-27.2-5-2.5-8.8-2.7-14.3-.8zm3.9 16.1c4 6.1 1 23.6-5.2 30.5-4 4.4-7.9 5.7-12.9 4-4-1.3-4.2-2.2-2.5-13 1.3-7.9 6-18 10.1-21.4 4-3.4 8.3-3.4 10.5-.1zM211.1 78.5c-7 2-10.8 4.4-16.1 10.1-7.8 8.5-11.9 22.1-10 33.6 1 6.7 2.9 10.5 6.9 14.5 5.3 5.4 9.6 6.8 20.1 6.8 8.3 0 10.2-.3 15-2.7 3-1.5 7.3-4.3 9.5-6.2l4-3.4-3.4-3.6c-4.1-4.3-6-4.4-11.7-1.1-5.8 3.4-12.1 4.2-16.2 2.1-3.4-1.8-4.6-3.5-5.6-8.2l-.7-3.2 8.1-1.1c20.9-3.1 30-9.7 30-21.8 0-12.3-14.6-20-29.9-15.8zM222.5 92c2.4 2.6 1.3 6.6-2.5 8.5-3.5 1.8-14.2 4.7-14.8 4-.3-.3.3-2.3 1.3-4.4 3.8-8.6 11.9-12.7 16-8.1zM316.7 78.1c-12.5 2.9-22.6 13.5-26.3 27.4-1.8 6.5-1.7 16.9.1 22 .8 2.2 1.5 4.1 1.5 4.2 0 .2-3.3.3-7.3.3h-7.3l-7.2 59.7c-4 32.9-7.6 62.2-7.9 65l-.6 5.3h20.4l2-3.5 2.1-3.4 2.1 2c4.9 4.6 9.8 6.4 18.2 6.4 6.7 0 8.9-.4 13.5-2.7 7.4-3.6 13.2-8.8 18.1-16 8.9-13 12.3-25.3 11.8-42.2-.4-10.6-.6-11.7-3.9-18.2-2.8-5.5-4.5-7.4-8.4-9.8-4.1-2.6-5.8-3-12-3.1-8.8 0-15.6 2.9-23.5 10.1-5.4 4.9-5.4 4.9-4.9 1.9.3-1.7 1.6-11.7 2.9-22.3l2.3-19.3 3.1.8c1.6.4 6.4.8 10.5.8 6.6 0 8.3-.5 13.8-3.5 10.2-5.4 17-15.1 19.3-27.5 3-16.3-4-30-17.2-33.9-5.8-1.7-9.4-1.9-15.2-.5zM328 94.7c2 2.5 2.2 3.7 1.8 12.3-.5 11.6-3.3 18.4-8.9 21.4-7.7 4.2-12.4-.5-12.3-12.4 0-8.9 2.4-16.7 6.4-21 3.9-4.1 9.8-4.3 13-.3zm-10.1 97.8c4.1 2.1 5.6 6.6 5.5 16.5-.3 17.7-8.8 33.7-19 35.6-3.4.6-10.1-.9-12.6-2.8-1.4-1.2-1.5-2.3-.1-12.8 1.2-9.2 2.2-13.1 5.2-19.5 4.2-9 8.5-14.5 13.3-16.8 4.1-2 4.2-2 7.7-.2zM252.5 80.2c-.4 2.3-7.5 60.1-7.5 61.8 0 .6 4.2 1 9.5 1 5.2 0 9.5-.3 9.5-.6 0-3 3.3-26.9 4.1-30.4 2.8-10.9 8.8-16.8 15.9-15.6 4.4.7 4.1 1 6.1-9.1 1.4-7.7.9-9.3-3.1-9.3-4.5 0-10.3 3.3-14.4 8.2l-3.6 4.3v-4.6c0-6.3-1.9-7.9-9.8-7.9-5.6 0-6.2.2-6.7 2.2zM213.9 172.8c-22.3 6-36.9 26.9-36.9 52.9 0 22.5 12.3 36.5 33.2 38 9.5.7 18.4-.9 26.4-4.8 5.7-2.9 16.4-11.2 16.4-12.8 0-.5-1.8-2.9-4.1-5.5-4.9-5.5-8.4-6-14.2-2-14.2 9.6-29.9 5.8-31.4-7.8l-.5-4.4 10.8-1.8c20.1-3.3 33-8.8 38-16.4 2.8-4.1 4.5-11.8 3.7-16.7-2.4-14.9-22.3-23.9-41.4-18.7zm14.9 17.8c1.6 1.1 2.2 2.5 2.2 5.4 0 5.1-3.8 8.1-14 10.9-8.2 2.3-12 2.6-12 1.1 0-1.4 3.7-8.8 6.2-12.3 4-5.7 13-8.3 17.6-5.1zM47.6 174.7c.2 1 3.3 19.8 6.9 41.8 3.6 22 6.8 41.2 7.1 42.7l.6 2.8h11.2c9.5 0 11.5-.3 12.8-1.8.8-.9 6-13.2 11.4-27.4 5.4-14.1 10.1-25.4 10.4-25.2.2.3 2.1 12.2 4.2 26.6 2 14.4 4.1 26.5 4.5 26.9.4.4 6 .9 12.3 1 8.8.1 11.6-.2 12.2-1.2.4-.8 4.3-10.2 8.7-20.9 4.3-10.7 12-29.6 17.1-42 5.1-12.4 9.5-23.1 9.7-23.8.4-.9-2.1-1.2-10.8-1.2-9.1 0-11.6.3-13.1 1.7-1 .9-3.9 8.2-6.4 16.2-5 16.1-12.2 38.8-13.1 41.1-.9 2.3-1.8-3.1-5.3-30.5-2.3-17.5-3.7-25.5-4.8-26.8-1.2-1.4-3.2-1.7-10.2-1.7-6.9 0-9.2.4-10.8 1.7-1.3 1.1-5.5 10.8-10.5 24.3-11.8 31.2-12.9 34-13.7 34-.4 0-.8-3.5-.9-7.7-.1-4.3-.8-17.2-1.6-28.8-1.3-17.4-1.8-21.2-3.2-22.3-1.1-.8-5.6-1.2-13.4-1.2-10.6 0-11.7.2-11.3 1.7zM76.6 273.8c-.2.4-2 14-4 30.2s-3.9 31.2-4.2 33.3l-.6 3.8 6.9-.3 6.8-.3L84 319l2.5-21.5 2.1 3.5c1.2 1.9 6.3 10.9 11.4 20 5.1 9.1 10 17.3 10.9 18.3 1.1 1.4 2.7 1.7 6.5 1.5l5.1-.3 1.2-8c.6-4.4 2.3-17.9 3.8-30 1.4-12.1 2.9-23.7 3.2-25.8l.6-3.8-6.9.3-6.9.3-2.5 21.2c-1.3 11.7-2.8 21.3-3.2 21.3-.4 0-.8-.4-.8-.9 0-1.2-20.9-38.1-22.8-40.4-1.6-1.7-10.6-2.5-11.6-.9zM153.4 293.4c-13 4.2-21.6 16.1-21.8 30.1-.2 11.8 4.2 17.5 13.4 17.5 4.7 0 7.3-1.1 11.3-4.8l2.7-2.6v2.7c0 3.4 2.8 4.9 8.3 4.5l4.2-.3 2.9-22.8c2-16 2.5-23.2 1.8-23.9-1.7-1.7-18.1-2-22.8-.4zm8.1 13.3c-1.7 13.4-6 22.3-10.8 22.3-3.6 0-4.7-1.9-4.7-8 0-9.6 6.8-19 13.7-19 2.3 0 2.4.2 1.8 4.7zM206.2 294.1c-2.4 1.2-4.9 3-5.5 4-1.7 2.7-2.5 2.3-2.9-1.4-.3-3.2-.4-3.2-6-3.5-3.2-.2-5.8.1-5.9.5 0 .4-1.2 11.1-2.8 23.6-1.5 12.5-2.5 23-2.2 23.2.2.3 3.5.5 7.1.5h6.8l1.2-11.8c1.5-14.2 4.4-21.4 9.5-23.9 1.8-.9 4-1.3 4.9-1 2 .8 2 3.4-.3 21.2-1 7.7-1.6 14.3-1.4 14.7.7 1.4 13.3.9 13.8-.5 1.3-3.3 4.2-34.1 3.6-37-2.3-10-10.2-13.4-19.9-8.6zM249.1 293.4c-5.1 1.8-10.9 7.2-13.8 12.9-3.9 7.6-4.4 19.4-1.1 25.7 1.3 2.5 3.9 5.5 5.8 6.8 3.1 2.1 4.5 2.3 11.6 2 7.4-.3 8.4-.6 12.7-3.8 2.5-1.9 4.7-4 4.7-4.6 0-1.3-4.2-5.4-5.6-5.4-.5 0-2.8 1-5.1 2.2-7.9 4.2-12.8-.1-11.9-10.4.5-6.5 2.7-11.1 6.9-14.2 2.7-2 2.9-2 7.5-.3l4.7 1.7 3.3-3.6c3.2-3.4 3.3-3.7 1.7-5.4-4.2-4.7-13.9-6.3-21.4-3.6zM274 293.6c0 .3 2.5 9.7 5.5 20.9 3 11.1 5.5 20.8 5.5 21.4 0 .6-2.2 5.1-5 10-2.7 4.9-5 9.1-5 9.5 0 1.2 11.6.6 13.2-.7 1.4-1.1 31.8-59.5 31.8-61 0-.4-2.9-.7-6.5-.7-7.7 0-7.2-.5-14.1 15.8-2.6 6.2-4.9 11.1-5 10.9-.2-.2-1.3-5.2-2.4-11.3-3-16-2.6-15.4-11-15.4-3.8 0-7 .3-7 .6z"/></svg>
